<svg xmlns="http://www.w3.org/2000/svg" version="1.1" xmlns:xlink="http://www.w3.org/1999/xlink" xmlns:svgjs="http://svgjs.dev/svgjs" width="1000" height="255" viewBox="0 0 1000 255"><g transform="matrix(1,0,0,1,-0.6060606060606233,0.060743847152963326)"><svg viewBox="0 0 396 101" data-background-color="#111111" preserveAspectRatio="xMidYMid meet" height="255" width="1000" xmlns="http://www.w3.org/2000/svg" xmlns:xlink="http://www.w3.org/1999/xlink"><g id="tight-bounds" transform="matrix(1,0,0,1,0.2400000000000091,-0.024059327695880484)"><svg viewBox="0 0 395.52 101.04793993109459" height="101.04793993109459" width="395.52"><g><svg viewBox="0 0 570.0839034564871 145.64574239521397" height="101.04793993109459" width="395.52"><g transform="matrix(1,0,0,1,174.5639034564871,42.19908790189592)"><svg viewBox="0 0 395.52 61.24756659142212" height="61.24756659142212" width="395.52"><g id="textblocktransform"><svg viewBox="0 0 395.52 61.24756659142212" height="61.24756659142212" width="395.52" id="textblock"><g><svg viewBox="0 0 395.52 61.24756659142212" height="61.24756659142212" width="395.52"><g transform="matrix(1,0,0,1,0,0)"><svg width="395.52" viewBox="3.75 -34.29999923706055 221.49000549316406 34.29999923706055" height="61.24756659142212" data-palette-color="#ffffff"><path d="M3.75 0L3.75-34.3 12.1-34.3 19.3-12.3Q19.95-10.25 20.85-6.35L20.85-6.35 21.05-6.35Q21.95-10.55 22.55-12.3L22.55-12.3 29.7-34.3 37.9-34.3 37.9 0 32.35 0 32.35-22.4 32.55-28.55 32.2-28.55Q31.7-26.3 31.3-25L31.3-25 23.05 0 18.2 0 10.05-25Q9.8-25.75 9.35-27.55L9.35-27.55 9.1-28.55 8.85-28.55 9-22.4 9 0 3.75 0ZM41.95 0L55.3-34.3 62.3-34.3 75.6 0 69.7 0 66.55-8.35 50.75-8.35 47.65 0 41.95 0ZM52.5-13.1L64.75-13.1 61-23.15 58.75-29.55 58.5-29.55 58.05-28.25Q57.2-25.65 56.3-23.25L56.3-23.25 52.5-13.1ZM76 0L89-17.95 77.2-34.3 84-34.3 92.4-22.4 92.8-22.4 101.25-34.3 107.75-34.3 95.95-18.05 109 0 102.25 0 92.55-13.7 92.2-13.7 82.5 0 76 0ZM126.84 0L126.84-34.3 140.04-34.3Q148.14-34.3 152.54-30.05 156.94-25.8 156.94-17.15L156.94-17.15Q156.94-8.5 152.54-4.25 148.14 0 140.04 0L140.04 0 126.84 0ZM132.39-4.75L140.04-4.75Q145.49-4.75 148.37-7.68 151.24-10.6 151.24-16.85L151.24-16.85 151.24-17.4Q151.24-23.7 148.37-26.63 145.49-29.55 140.04-29.55L140.04-29.55 132.39-29.55 132.39-4.75ZM162.94 0L162.94-34.3 189.54-34.3 189.54-29.55 168.49-29.55 168.49-19.9 187.34-19.9 187.34-15.15 168.49-15.15 168.49-4.75 189.84-4.75 189.84 0 162.94 0ZM205.79 0L193.14-34.3 199.14-34.3 207.39-11.25 207.94-9.65 209.24-5.85 209.49-5.85 210.59-9Q210.79-9.7 210.99-10.28 211.19-10.85 211.34-11.3L211.34-11.3 219.54-34.3 225.24-34.3 212.64 0 205.79 0Z" opacity="1" transform="matrix(1,0,0,1,0,0)" fill="#ffffff" class="wordmark-text-0" data-fill-palette-color="primary" id="text-0"></path></svg></g></svg></g></svg></g></svg></g><g><svg viewBox="0 0 145.64574239521397 145.64574239521397" height="145.64574239521397" width="145.64574239521397"><g><svg></svg></g><g id="icon-0"><svg viewBox="0 0 145.64574239521397 145.64574239521397" height="145.64574239521397" width="145.64574239521397"><g><path d="M0 72.823c0-40.219 32.604-72.823 72.823-72.823 40.219 0 72.823 32.604 72.823 72.823 0 40.219-32.604 72.823-72.823 72.823-40.219 0-72.823-32.604-72.823-72.823zM72.823 140.122c37.168 0 67.299-30.131 67.299-67.299 0-37.168-30.131-67.299-67.299-67.3-37.168 0-67.299 30.131-67.3 67.3 0 37.168 30.131 67.299 67.3 67.299z" data-fill-palette-color="accent" fill="#39cccc" stroke="transparent"></path></g><g transform="matrix(1,0,0,1,33.876890264938446,33.876890264938446)"><svg viewBox="0 0 77.89196186533708 77.89196186533708" height="77.89196186533708" width="77.89196186533708"><g><svg xmlns="http://www.w3.org/2000/svg" xmlns:xlink="http://www.w3.org/1999/xlink" version="1.1" x="0" y="0" viewBox="26 26 460 460" style="enable-background:new 0 0 512 512;" xml:space="preserve" height="77.89196186533708" width="77.89196186533708" class="icon-s-0" data-fill-palette-color="accent" id="s-0"><g fill="#39cccc" data-fill-palette-color="accent"><rect x="190" y="190" width="132" height="132" fill="#39cccc" data-fill-palette-color="accent"></rect><path d="M336 150H176c-14.4 0-26 11.6-26 26v160c0 14.4 11.6 26 26 26h160c14.4 0 26-11.6 26-26V176C362 161.6 350.4 150 336 150zM334 328c0 3.3-2.7 6-6 6H184c-3.3 0-6-2.7-6-6V184c0-3.3 2.7-6 6-6h144c3.3 0 6 2.7 6 6V328z" fill="#39cccc" data-fill-palette-color="accent"></path><path d="M178 134c-0.1 3.2 2.4 5.9 5.6 6 0.1 0 0.1 0 0.2 0h30c3.4 0 6.1-2.6 6.2-6V84c-0.1-3.4-2.9-6-6.2-6H213V54c-0.1-3.4-2.9-6-6.2-6H205V32c0-3.3-2.7-6-6-6s-6 2.7-6 6v16h-2.2c-3.2 0-5.8 2.6-5.8 5.8 0 0.1 0 0.1 0 0.2v24h-1.2c-3.2 0-5.8 2.6-5.8 5.8 0 0.1 0 0.1 0 0.2V134z" fill="#39cccc" data-fill-palette-color="accent"></path><path d="M298.2 140h30c3.2 0 5.8-2.6 5.8-5.8 0-0.1 0-0.1 0-0.2V84c0.1-3.2-2.4-5.9-5.6-6-0.1 0-0.1 0-0.2 0H327V54c0.1-3.2-2.4-5.9-5.6-6-0.1 0-0.1 0-0.2 0H319V32c0-3.3-2.7-6-6-6s-6 2.7-6 6v16h-1.8c-3.4 0-6.1 2.6-6.2 6v24h-0.8c-3.4 0-6.1 2.6-6.2 6v50C292.1 137.4 294.9 140 298.2 140z" fill="#39cccc" data-fill-palette-color="accent"></path><path d="M241 140h30c3.3 0 6-2.7 6-6V84c0-3.3-2.7-6-6-6h-1V54c0-3.3-2.7-6-6-6h-2V32c0-3.3-2.7-6-6-6s-6 2.7-6 6v16h-2c-3.3 0-6 2.7-6 6v24h-1c-3.3 0-6 2.7-6 6v50C235 137.3 237.7 140 241 140z" fill="#39cccc" data-fill-palette-color="accent"></path><path d="M334 378c0.1-3.2-2.4-5.9-5.6-6-0.1 0-0.1 0-0.2 0h-30c-3.4 0-6.1 2.6-6.2 6v50c0.1 3.4 2.9 6 6.2 6h0.8v24c0.1 3.4 2.9 6 6.2 6h1.8v16c0 3.3 2.7 6 6 6s6-2.7 6-6v-16h2.2c3.2 0 5.8-2.6 5.8-5.8 0-0.1 0-0.1 0-0.2v-24h1.2c3.2 0 5.8-2.6 5.8-5.8 0-0.1 0-0.1 0-0.2V378z" fill="#39cccc" data-fill-palette-color="accent"></path><path d="M213.8 372h-30c-3.2 0-5.8 2.6-5.8 5.8 0 0.1 0 0.1 0 0.2v50c-0.1 3.2 2.4 5.9 5.6 6 0.1 0 0.1 0 0.2 0h1.2v24c-0.1 3.2 2.4 5.9 5.6 6 0.1 0 0.1 0 0.2 0h2.2v16c0 3.3 2.7 6 6 6s6-2.7 6-6v-16h1.8c3.4 0 6.1-2.6 6.2-6v-24h0.8c3.4 0 6.1-2.6 6.2-6v-50C219.9 374.6 217.1 372 213.8 372z" fill="#39cccc" data-fill-palette-color="accent"></path><path d="M271 372h-30c-3.3 0-6 2.7-6 6v50c0 3.3 2.7 6 6 6h1v24c0 3.3 2.7 6 6 6h2v16c0 3.3 2.7 6 6 6s6-2.7 6-6v-16h2c3.3 0 6-2.7 6-6v-24h1c3.3 0 6-2.7 6-6v-50C277 374.7 274.3 372 271 372z" fill="#39cccc" data-fill-palette-color="accent"></path><path d="M378 220h50c3.4-0.1 6-2.9 6-6.2V213h24c3.4-0.1 6-2.9 6-6.2V205h16c3.3 0 6-2.7 6-6s-2.7-6-6-6h-16v-2.2c0-3.2-2.6-5.8-5.8-5.8-0.1 0-0.1 0-0.2 0h-24v-1.2c0-3.2-2.6-5.8-5.8-5.8-0.1 0-0.1 0-0.2 0h-50c-3.2-0.1-5.9 2.4-6 5.6 0 0.1 0 0.1 0 0.2v30C372 217.1 374.6 219.9 378 220z" fill="#39cccc" data-fill-palette-color="accent"></path><path d="M480 307h-16v-1.8c0-3.4-2.6-6.1-6-6.2h-24v-0.8c0-3.4-2.6-6.1-6-6.2h-50c-3.4 0.1-6 2.9-6 6.2v30c0 3.2 2.6 5.8 5.8 5.8 0.1 0 0.1 0 0.2 0h50c3.2 0.1 5.9-2.4 6-5.6 0-0.1 0-0.1 0-0.2V327h24c3.2 0.1 5.9-2.4 6-5.6 0-0.1 0-0.1 0-0.2V319h16c3.3 0 6-2.7 6-6S483.3 307 480 307z" fill="#39cccc" data-fill-palette-color="accent"></path><path d="M480 250h-16v-2c0-3.3-2.7-6-6-6h-24v-1c0-3.3-2.7-6-6-6h-50c-3.3 0-6 2.7-6 6v30c0 3.3 2.7 6 6 6h50c3.3 0 6-2.7 6-6v-1h24c3.3 0 6-2.7 6-6v-2h16c3.3 0 6-2.7 6-6S483.3 250 480 250z" fill="#39cccc" data-fill-palette-color="accent"></path><path d="M134 292H84c-3.4 0.1-6 2.9-6 6.2v0.8H54c-3.4 0.1-6 2.9-6 6.2v1.8H32c-3.3 0-6 2.7-6 6s2.7 6 6 6h16v2.2c0 3.2 2.6 5.8 5.8 5.8 0.1 0 0.1 0 0.2 0h24v1.2c0 3.2 2.6 5.8 5.8 5.8 0.1 0 0.1 0 0.2 0h50c3.2 0.1 5.9-2.4 6-5.6 0-0.1 0-0.1 0-0.2v-30C140 294.9 137.4 292.1 134 292z" fill="#39cccc" data-fill-palette-color="accent"></path><path d="M134.2 178c-0.1 0-0.1 0-0.2 0H84c-3.2-0.1-5.9 2.4-6 5.6 0 0.1 0 0.1 0 0.2v1.2H54c-3.2-0.1-5.9 2.4-6 5.6 0 0.1 0 0.1 0 0.2v2.2H32c-3.3 0-6 2.7-6 6s2.7 6 6 6h16v1.8c0 3.4 2.6 6.1 6 6.2h24v0.8c0 3.4 2.6 6.1 6 6.2h50c3.4-0.1 6-2.9 6-6.2v-30C140 180.6 137.4 178 134.2 178z" fill="#39cccc" data-fill-palette-color="accent"></path><path d="M134 235H84c-3.3 0-6 2.7-6 6v1H54c-3.3 0-6 2.7-6 6v2H32c-3.3 0-6 2.7-6 6s2.7 6 6 6h16v2c0 3.3 2.7 6 6 6h24v1c0 3.3 2.7 6 6 6h50c3.3 0 6-2.7 6-6v-30C140 237.7 137.3 235 134 235z" fill="#39cccc" data-fill-palette-color="accent"></path></g></svg></g></svg></g></svg></g></svg></g></svg></g><defs></defs></svg><rect width="395.52" height="101.04793993109459" fill="none" stroke="none" visibility="hidden"></rect></g></svg></g></svg>